<svg version="1.1" xmlns="http://www.w3.org/2000/svg" xmlns:xlink="http://www.w3.org/1999/xlink" role="img" width="165" height="90" viewbox="0 0 165 90"><title>PyCls</title><desc>Generated by logo.svg, https://github.com/bubkoo/logo.svg</desc><path fill="#2b68a7" d="M-0.28 70.35L0.30 67.66L1.13 67.66Q3.24 67.66 4.94 66.86Q6.63 66.06 7.27 63.06L13.93 31.70Q14.18 30.67 14.18 29.90Q14.18 28.24 12.90 27.79Q11.62 27.34 9.58 27.34L8.74 27.34L9.32 24.66L25.70 24.66Q32.42 24.66 36.36 27.79Q40.30 30.93 40.30 37.01Q40.30 39.44 39.53 42.13Q38.76 44.82 36.68 47.18Q34.60 49.55 30.73 51.06Q26.86 52.56 20.71 52.56L15.98 52.56L13.67 63.31Q13.42 64.34 13.42 65.10Q13.42 66.77 14.70 67.22Q15.98 67.66 18.02 67.66L20.14 67.66L19.56 70.35L-0.28 70.35M16.62 49.55L20.01 49.55Q24.94 49.55 27.91 47.95Q30.89 46.35 32.20 43.54Q33.51 40.72 33.51 37.07Q33.51 32.02 31.11 29.87Q28.71 27.73 24.17 27.73L21.22 27.73L16.62 49.55ZM36.33 85.71Q32.94 85.71 30.31 84.56L31.27 81.36Q32.04 81.62 33.16 81.84Q34.28 82.06 36.26 82.06Q39.40 82.06 42.06 80.94Q44.71 79.82 46.95 78.06Q49.19 76.30 51.02 74.29Q52.84 72.27 54.25 70.42L45.80 42.13Q45.22 40.21 44.23 39.47Q43.24 38.74 41.38 38.74L40.74 38.74L41.26 36.05L50.60 36.05L55.59 53.33Q56.04 54.99 56.65 57.30Q57.26 59.60 57.74 61.71Q58.22 63.82 58.28 64.91L58.47 64.91Q60.90 61.26 62.86 57.46Q64.81 53.65 65.96 50.10Q67.11 46.54 67.11 43.66Q67.11 42.32 66.44 41.26Q65.77 40.21 63.98 40.21Q63.98 37.90 65.29 36.69Q66.60 35.47 68.14 35.47Q70.12 35.47 71.30 36.82Q72.49 38.16 72.49 40.85Q72.49 45.84 69.42 52.37Q66.34 58.90 61.22 66.70Q58.09 71.57 55.43 75.15Q52.78 78.74 50.09 81.07Q47.40 83.41 44.10 84.56Q40.81 85.71 36.33 85.71ZM95.46 70.99Q87.14 70.99 82.47 66.51Q77.80 62.03 77.80 53.84Q77.80 48.14 79.66 42.80Q81.51 37.46 85.00 33.23Q88.49 29.01 93.35 26.51Q98.22 24.02 104.17 24.02Q109.80 24.02 112.90 25.97Q116.01 27.92 116.01 31.12Q116.01 33.42 114.25 34.77Q112.49 36.11 109.74 36.11Q109.74 34.38 109.29 32.34Q108.84 30.29 107.46 28.85Q106.09 27.41 103.34 27.41Q99.82 27.41 96.90 29.10Q93.99 30.80 91.72 33.65Q89.45 36.50 87.91 40.08Q86.38 43.66 85.58 47.47Q84.78 51.28 84.78 54.86Q84.78 60.56 87.62 63.70Q90.47 66.83 96.17 66.83Q100.71 66.83 103.53 65.01Q106.34 63.18 108.01 61.01Q108.84 61.65 108.84 63.12Q108.84 64.85 107.46 66.67Q106.09 68.50 103.14 69.74Q100.20 70.99 95.46 70.99ZM124.58 70.99Q122.02 70.99 120.65 69.20Q119.27 67.41 119.27 64.91Q119.27 63.57 119.53 61.71Q119.78 59.86 120.10 58Q120.42 56.14 120.68 54.86L125.93 30.29Q126.12 29.39 126.22 28.56Q126.31 27.73 126.31 27.41Q126.31 25.49 125.00 24.94Q123.69 24.40 121.83 24.40L121.06 24.40L121.64 21.71L133.74 21.71L126.31 56.59Q126.12 57.30 125.90 58.64Q125.67 59.98 125.48 61.39Q125.29 62.80 125.29 63.70Q125.29 66.96 127.40 66.96Q128.42 66.96 129.61 66.48Q130.79 66 132.01 65.30L133.16 67.15Q131.75 68.43 129.38 69.71Q127.02 70.99 124.58 70.99ZM146.22 70.99Q141.42 70.99 138.54 69.07Q135.66 67.15 135.66 63.76Q135.66 62.03 136.33 61.14Q137 60.24 137.96 59.89Q138.92 59.54 139.69 59.54Q139.69 61.78 140.39 63.70Q141.10 65.62 142.70 66.77Q144.30 67.92 146.98 67.92Q150.18 67.92 152.04 66.45Q153.90 64.98 153.90 61.97Q153.90 59.73 152.42 58.13Q150.95 56.53 147.43 54.93Q143.91 53.26 141.80 51.06Q139.69 48.85 139.69 45.01Q139.69 40.91 143.02 38.19Q146.34 35.47 152.04 35.47Q155.56 35.47 157.74 36.37Q159.91 37.26 160.97 38.67Q162.02 40.08 162.02 41.55Q162.02 43.60 160.71 44.56Q159.40 45.52 157.22 45.52Q157.22 43.86 156.68 42.19Q156.14 40.53 154.89 39.47Q153.64 38.42 151.46 38.42Q148.58 38.42 146.92 39.98Q145.26 41.55 145.26 43.92Q145.26 46.10 146.82 47.54Q148.39 48.98 151.78 50.51Q155.30 52.11 157.38 54.42Q159.46 56.72 159.46 60.43Q159.46 65.10 155.91 68.05Q152.36 70.99 146.22 70.99Z"></path></svg>