<svg ed:vSpacing="30" ed:name="页面-1" ed:hSpacing="30" xmlns:xlink="http://www.w3.org/1999/xlink" viewBox="0 0 977 378" xmlns="http://www.w3.org/2000/svg" id="page100" height="378" xmlns:ed="https://www.edrawsoft.cn/xml/2017/SVGExtensions/" xmlns:ev="http://www.w3.org/2001/xml-events" width="977"><style type="text/css"><![CDATA[
g[ed\:togtopicid],g[ed\:hyperlink],g[ed\:comment],g[ed\:note] {cursor:pointer;}
g[id] {-moz-user-select: none;-ms-user-select: none;user-select: none;}
svg text::selection,svg tspan::selection{background-color: #4285f4;color: #ffffff;fill: #ffffff;}
.st3 {fill:#424f58;font-family:Microsoft YaHei;font-size:10pt}
.st2 {fill:#424f58;font-family:Microsoft YaHei;font-size:14pt;font-weight:bold}
.st1 {fill:#ffffff;font-family:Microsoft YaHei;font-size:18pt;font-weight:bold}
]]></style><defs/><rect x="0" fill="#ffffff" height="378" y="0" width="977"/><path stroke="#424f58" ed:parentid="101" stroke-width="3" stroke-linecap="round" d="M-18.4,50.7L18.4,-50.7" fill="none" transform="matrix(1,0,0,1,208.38,146.07)" stroke-linejoin="round" id="103" ed:tosuperid="102"/><path stroke="#424f58" ed:parentid="101" stroke-width="3" stroke-linecap="round" d="M-28.6,-78.7L28.6,78.7" fill="none" transform="matrix(1,0,0,1,434.23,274.7)" stroke-linejoin="round" id="105" ed:tosuperid="104"/><path stroke="#424f58" ed:parentid="101" stroke-width="3" stroke-linecap="round" d="M-32,87.9L32,-87.9" fill="none" transform="matrix(1,0,0,1,393.58,108.86)" stroke-linejoin="round" id="107" ed:tosuperid="106"/><path stroke="#424f58" ed:parentid="101" stroke-width="3" stroke-linecap="round" d="M-18.5,-50.9L18.5,50.9" fill="none" transform="matrix(1,0,0,1,252.45,246.91)" stroke-linejoin="round" id="109" ed:tosuperid="108"/><path stroke="#424f58" ed:parentid="106" stroke-width="2" stroke-linecap="round" d="M-37.7,0L37.7,0" fill="none" transform="matrix(1,0,0,1,418.97,139.81)" stroke-linejoin="round" id="111" ed:tosuperid="110"/><path stroke="#424f58" ed:parentid="106" stroke-width="2" stroke-linecap="round" d="M-48.2,0L48.2,0" fill="none" transform="matrix(1,0,0,1,465.92,39.66)" stroke-linejoin="round" id="113" ed:tosuperid="112"/><path stroke="#424f58" ed:parentid="106" stroke-width="2" stroke-linecap="round" d="M-59.8,0L59.8,0" fill="none" transform="matrix(1,0,0,1,459.28,89.74)" stroke-linejoin="round" id="115" ed:tosuperid="114"/><path stroke="#424f58" ed:parentid="106" stroke-width="2" stroke-linecap="round" d="M-39,0L39,0" fill="none" transform="matrix(1,0,0,1,429.38,114.77)" stroke-linejoin="round" id="117" ed:tosuperid="116"/><path stroke="#424f58" ed:parentid="108" stroke-width="2" stroke-linecap="round" d="M-41.1,0L41.1,0" fill="none" transform="matrix(1,0,0,1,301.16,270.81)" stroke-linejoin="round" id="123" ed:tosuperid="122"/><path stroke="#424f58" ed:parentid="102" stroke-width="2" stroke-linecap="round" d="M-44.6,0L44.6,0" fill="none" transform="matrix(1,0,0,1,254.17,139.81)" stroke-linejoin="round" id="135" ed:tosuperid="134"/><path stroke="#424f58" ed:parentid="104" stroke-width="2" stroke-linecap="round" d="M-43.3,0L43.3,0" fill="none" transform="matrix(1,0,0,1,484.19,295.85)" stroke-linejoin="round" id="145" ed:tosuperid="144"/><path stroke="#424f58" ed:parentid="104" stroke-width="2" stroke-linecap="round" d="M-56.3,0L56.3,0" fill="none" transform="matrix(1,0,0,1,515.43,345.92)" stroke-linejoin="round" id="147" ed:tosuperid="146"/><path stroke="#424f58" ed:parentid="104" stroke-width="2" stroke-linecap="round" d="M-56.2,0L56.2,0" fill="none" transform="matrix(1,0,0,1,506.22,320.88)" stroke-linejoin="round" id="171" ed:tosuperid="170"/><path stroke="#424f58" ed:parentid="104" stroke-width="2" stroke-linecap="round" d="M-42.3,0L42.3,0" fill="none" transform="matrix(1,0,0,1,474.02,270.81)" stroke-linejoin="round" id="173" ed:tosuperid="172"/><path stroke="#424f58" ed:parentid="101" stroke-width="3" stroke-linecap="round" d="M-27.4,75.3L27.4,-75.3" fill="none" transform="matrix(1,0,0,1,591.12,121.38)" stroke-linejoin="round" id="162" ed:tosuperid="161"/><path stroke="#424f58" ed:parentid="101" stroke-width="3" stroke-linecap="round" d="M-18.5,-50.9L18.5,50.9" fill="none" transform="matrix(1,0,0,1,626.21,246.91)" stroke-linejoin="round" id="164" ed:tosuperid="163"/><path stroke="#424f58" ed:parentid="101" stroke-width="3" stroke-linecap="round" d="M-18.4,50.7L18.4,-50.7" fill="none" transform="matrix(1,0,0,1,784.22,146.07)" stroke-linejoin="round" id="166" ed:tosuperid="165"/><path stroke="#424f58" ed:parentid="165" stroke-width="2" stroke-linecap="round" d="M-40.8,0L40.8,0" fill="none" transform="matrix(1,0,0,1,826.21,139.81)" stroke-linejoin="round" id="174" ed:tosuperid="169"/><path stroke="#424f58" ed:parentid="163" stroke-width="2" stroke-linecap="round" d="M-41.5,0L41.5,0" fill="none" transform="matrix(1,0,0,1,675.35,270.81)" stroke-linejoin="round" id="176" ed:tosuperid="175"/><path stroke="#424f58" ed:parentid="161" stroke-width="2" stroke-linecap="round" d="M-59.8,0L59.8,0" fill="none" transform="matrix(1,0,0,1,670.48,64.7)" stroke-linejoin="round" id="178" ed:tosuperid="177"/><path stroke="#424f58" ed:parentid="161" stroke-width="2" stroke-linecap="round" d="M-59.7,0L59.7,0" fill="none" transform="matrix(1,0,0,1,661.27,89.74)" stroke-linejoin="round" id="181" ed:tosuperid="180"/><path stroke="#424f58" ed:parentid="161" stroke-width="2" stroke-linecap="round" d="M-37.2,0L37.2,0" fill="none" transform="matrix(1,0,0,1,629.62,114.77)" stroke-linejoin="round" id="183" ed:tosuperid="182"/><path stroke="#424f58" ed:parentid="161" stroke-width="2" stroke-linecap="round" d="M-49.1,0L49.1,0" fill="none" transform="matrix(1,0,0,1,632.43,139.81)" stroke-linejoin="round" id="185" ed:tosuperid="184"/><path stroke="#424f58" ed:parentid="106" stroke-width="2" stroke-linecap="round" d="M-38.8,0L38.8,0" fill="none" transform="matrix(1,0,0,1,447.35,64.7)" stroke-linejoin="round" id="167" ed:tosuperid="160"/><g ed:topictype="mainidea" ed:width="110" transform="matrix(1,0,0,1,23,141.38)" ed:height="110" ed:layout="map" id="101"><path stroke="#424f58" stroke-width="3" d="M110,99.5L110,12.5C110,12.5,111.4,0,96.6,0C81.7,0,49.3,8.8,30.4,20.2C11.5,31.6,0,43.9,0,54.4C0,64.9,12,77.4,30.4,87.7C48.8,98.1,84.2,109.9,96.6,110C108.9,110,109.5,102.6,110,99.5zM856.9,54.5L110,54.5L110,55.5L856.9,55.5L856.9,54.5zM895.1,0C895.1,0,878.1,3.6,867.9,18.1C862.6,27.3,865,36.1,862.4,42.6C859.8,49.1,856.9,52.8,856.9,52.8C856.9,52.8,856.9,57.2,856.9,57.2C856.9,57.2,860.7,60.9,862.4,67.4C864.1,73.9,863.9,84.2,867.9,91.9C871.8,99.5,886.4,108.4,895.1,110C895.1,110,900.9,99.5,900.9,84.2C900.2,69,886.9,54.9,886.9,54.9C886.9,54.9,900.6,41.2,900.9,26.1C901,15.3,898,5.6,895.1,0z" fill="#424f58" stroke-linejoin="round"/><text class="st1"><tspan x="41" style="white-space:pre" y="62.1">ZCls</tspan></text></g><g ed:parentid="101" ed:width="85.8125" transform="matrix(0.34,-0.94,0.94,0.34,161.24,170.32)" ed:height="35" ed:layout="map" id="102"><text class="st2"><tspan x="19" style="white-space:pre" y="24.6">2021</tspan></text></g><g ed:parentid="101" ed:width="85.8125" transform="matrix(-0.34,-0.94,0.94,-0.34,406.26,303.09)" ed:height="35" ed:layout="map" id="104"><path d="M0,0L85.8,0L85.8,35L0,35L0,0z" fill="#ffffff"/><text class="st2"><tspan x="19" style="white-space:pre" y="24.6">2018</tspan></text></g><g ed:parentid="101" ed:width="85.8125" transform="matrix(0.34,-0.94,0.94,0.34,332.91,170.32)" ed:height="35" ed:layout="map" id="106"><text class="st2"><tspan x="19" style="white-space:pre" y="24.6">2019</tspan></text></g><g ed:parentid="101" ed:width="85.8125" transform="matrix(-0.34,-0.94,0.94,-0.34,234.59,303.09)" ed:height="35" ed:layout="map" id="108"><text class="st2"><tspan x="19" style="white-space:pre" y="24.6">2020</tspan></text></g><g ed:parentid="106" ed:width="58.5156" transform="matrix(1,0,0,1,394.67,120.81)" ed:height="19" ed:layout="map" id="110"><text class="st3"><tspan x="9" style="white-space:pre" y="13.1">SKNet</tspan></text></g><g ed:parentid="106" ed:width="79.515625" transform="matrix(1,0,0,1,431.12,20.66)" ed:height="19" ed:layout="map" id="112"><text class="st3"><tspan x="9" style="white-space:pre" y="13.1">GhostNet</tspan></text></g><g ed:parentid="106" ed:width="102.672" transform="matrix(1,0,0,1,412.9,70.74)" ed:height="19" ed:layout="map" id="114"><text class="st3"><tspan x="9" style="white-space:pre" y="13.1">MobileNetV3</tspan></text></g><g ed:parentid="106" ed:width="61.1094" transform="matrix(1,0,0,1,403.78,95.77)" ed:height="19" ed:layout="map" id="116"><text class="st3"><tspan x="9" style="white-space:pre" y="13.1">GCNet</tspan></text></g><g ed:parentid="108" ed:width="72.14060000000001" transform="matrix(1,0,0,1,266.59,251.81)" ed:height="19" ed:layout="map" id="122"><text class="st3"><tspan x="9" style="white-space:pre" y="13.1">ResNeSt</tspan></text></g><g ed:parentid="102" ed:width="72.25" transform="matrix(1,0,0,1,223.01,120.81)" ed:height="19" ed:layout="map" id="134"><text class="st3"><tspan x="9" style="white-space:pre" y="13.1">RepVGG</tspan></text></g><g ed:parentid="104" ed:width="76.64060000000001" transform="matrix(1,0,0,1,447.37,276.85)" ed:height="19" ed:layout="map" id="144"><text class="st3"><tspan x="9" style="white-space:pre" y="13.1">MnasNet</tspan></text></g><g ed:parentid="104" ed:width="102.672" transform="matrix(1,0,0,1,465.59,326.92)" ed:height="19" ed:layout="map" id="146"><text class="st3"><tspan x="9" style="white-space:pre" y="13.1">MobileNetV2</tspan></text></g><g ed:parentid="104" ed:width="102.484" transform="matrix(1,0,0,1,456.48,301.88)" ed:height="19" ed:layout="map" id="170"><text class="st3"><tspan x="9" style="white-space:pre" y="13.1">ShuffleNetV2</tspan></text></g><g ed:parentid="104" ed:width="74.5313" transform="matrix(1,0,0,1,438.25,251.81)" ed:height="19" ed:layout="map" id="172"><text class="st3"><tspan x="9" style="white-space:pre" y="13.1">ResNetD</tspan></text></g><g ed:parentid="101" ed:width="85.8125" transform="matrix(0.34,-0.94,0.94,0.34,534.99,170.32)" ed:height="35" ed:layout="map" id="161"><path d="M0,0L85.8,0L85.8,35L0,35L0,0z" fill="#ffffff"/><text class="st2"><tspan x="19" style="white-space:pre" y="24.6">2017</tspan></text></g><g ed:parentid="101" ed:width="85.8125" transform="matrix(-0.34,-0.94,0.94,-0.34,608.34,303.09)" ed:height="35" ed:layout="map" id="163"><path d="M0,0L85.8,0L85.8,35L0,35L0,0z" fill="#ffffff"/><text class="st2"><tspan x="19" style="white-space:pre" y="24.6">2016</tspan></text></g><g ed:parentid="101" ed:width="85.8125" transform="matrix(0.34,-0.94,0.94,0.34,737.08,170.32)" ed:height="35" ed:layout="map" id="165"><path d="M0,0L85.8,0L85.8,35L0,35L0,0z" fill="#ffffff"/><text class="st2"><tspan x="19" style="white-space:pre" y="24.6">2015</tspan></text></g><g ed:parentid="165" ed:width="64.64060000000001" transform="matrix(1,0,0,1,798.85,120.81)" ed:height="19" ed:layout="map" id="169"><text class="st3"><tspan x="9" style="white-space:pre" y="13.1">ResNet</tspan></text></g><g ed:parentid="163" ed:width="73.01560000000001" transform="matrix(1,0,0,1,640.34,251.81)" ed:height="19" ed:layout="map" id="175"><text class="st3"><tspan x="9" style="white-space:pre" y="13.1">ResNeXt</tspan></text></g><g ed:parentid="161" ed:width="102.672" transform="matrix(1,0,0,1,624.1,45.7)" ed:height="19" ed:layout="map" id="177"><text class="st3"><tspan x="9" style="white-space:pre" y="13.1">MobileNetV1</tspan></text></g><g ed:parentid="161" ed:width="102.484" transform="matrix(1,0,0,1,614.98,70.74)" ed:height="19" ed:layout="map" id="180"><text class="st3"><tspan x="9" style="white-space:pre" y="13.1">ShuffleNetV1</tspan></text></g><g ed:parentid="161" ed:width="57.4063" transform="matrix(1,0,0,1,605.87,95.77)" ed:height="19" ed:layout="map" id="182"><text class="st3"><tspan x="9" style="white-space:pre" y="13.1">SENet</tspan></text></g><g ed:parentid="161" ed:width="81.26560000000001" transform="matrix(1,0,0,1,596.76,120.81)" ed:height="19" ed:layout="map" id="184"><text class="st3"><tspan x="9" style="white-space:pre" y="13.1">Non-local</tspan></text></g><g ed:parentid="106" ed:width="60.59375" transform="matrix(1,0,0,1,422.01,45.7)" ed:height="19" ed:layout="map" id="160"><text class="st3"><tspan x="9" style="white-space:pre" y="13.1">ACNet</tspan></text></g></svg>