<svg xmlns="http://www.w3.org/2000/svg" xmlns:xlink="http://www.w3.org/1999/xlink" width="977" height="403" viewBox="0 0 977 403" ed:hSpacing="30" xmlns:ev="http://www.w3.org/2001/xml-events" xmlns:ed="https://www.edrawsoft.cn/xml/2017/SVGExtensions/" ed:name="页面-1" ed:vSpacing="30" id="page100"><style type="text/css"><![CDATA[
g[ed\:togtopicid],g[ed\:hyperlink],g[ed\:comment],g[ed\:note] {cursor:pointer;}
g[id] {-moz-user-select: none;-ms-user-select: none;user-select: none;}
svg text::selection,svg tspan::selection{background-color: #4285f4;color: #ffffff;fill: #ffffff;}
.st3 {fill:#424f58;font-family:Microsoft YaHei;font-size:10pt}
.st2 {fill:#424f58;font-family:Microsoft YaHei;font-size:14pt;font-weight:bold}
.st1 {fill:#ffffff;font-family:Microsoft YaHei;font-size:18pt;font-weight:bold}
]]></style><defs/><rect fill="#ffffff" width="977" height="403" y="0" x="0"/><path fill="none" stroke-linecap="round" ed:tosuperid="102" stroke="#424f58" d="M-18.4,50.7L18.4,-50.7" transform="matrix(1,0,0,1,208.38,171.11)" id="103" stroke-linejoin="round" stroke-width="3" ed:parentid="101"/><path fill="none" stroke-linecap="round" ed:tosuperid="104" stroke="#424f58" d="M-28.6,-78.7L28.6,78.7" transform="matrix(1,0,0,1,434.23,299.73)" id="105" stroke-linejoin="round" stroke-width="3" ed:parentid="101"/><path fill="none" stroke-linecap="round" ed:tosuperid="106" stroke="#424f58" d="M-36.5,100.4L36.5,-100.4" transform="matrix(1,0,0,1,398.14,121.38)" id="107" stroke-linejoin="round" stroke-width="3" ed:parentid="101"/><path fill="none" stroke-linecap="round" ed:tosuperid="108" stroke="#424f58" d="M-18.5,-50.9L18.5,50.9" transform="matrix(1,0,0,1,252.45,271.95)" id="109" stroke-linejoin="round" stroke-width="3" ed:parentid="101"/><path fill="none" stroke-linecap="round" ed:tosuperid="110" stroke="#424f58" d="M-37.7,0L37.7,0" transform="matrix(1,0,0,1,418.97,164.85)" id="111" stroke-linejoin="round" stroke-width="2" ed:parentid="106"/><path fill="none" stroke-linecap="round" ed:tosuperid="112" stroke="#424f58" d="M-48.2,0L48.2,0" transform="matrix(1,0,0,1,475.04,39.66)" id="113" stroke-linejoin="round" stroke-width="2" ed:parentid="106"/><path fill="none" stroke-linecap="round" ed:tosuperid="114" stroke="#424f58" d="M-59.8,0L59.8,0" transform="matrix(1,0,0,1,468.39,89.74)" id="115" stroke-linejoin="round" stroke-width="2" ed:parentid="106"/><path fill="none" stroke-linecap="round" ed:tosuperid="116" stroke="#424f58" d="M-39,0L39,0" transform="matrix(1,0,0,1,429.38,139.81)" id="117" stroke-linejoin="round" stroke-width="2" ed:parentid="106"/><path fill="none" stroke-linecap="round" ed:tosuperid="122" stroke="#424f58" d="M-41.1,0L41.1,0" transform="matrix(1,0,0,1,301.16,295.85)" id="123" stroke-linejoin="round" stroke-width="2" ed:parentid="108"/><path fill="none" stroke-linecap="round" ed:tosuperid="134" stroke="#424f58" d="M-44.6,0L44.6,0" transform="matrix(1,0,0,1,254.17,164.85)" id="135" stroke-linejoin="round" stroke-width="2" ed:parentid="102"/><path fill="none" stroke-linecap="round" ed:tosuperid="144" stroke="#424f58" d="M-43.3,0L43.3,0" transform="matrix(1,0,0,1,484.19,320.88)" id="145" stroke-linejoin="round" stroke-width="2" ed:parentid="104"/><path fill="none" stroke-linecap="round" ed:tosuperid="146" stroke="#424f58" d="M-56.3,0L56.3,0" transform="matrix(1,0,0,1,515.43,370.96)" id="147" stroke-linejoin="round" stroke-width="2" ed:parentid="104"/><path fill="none" stroke-linecap="round" ed:tosuperid="170" stroke="#424f58" d="M-56.2,0L56.2,0" transform="matrix(1,0,0,1,506.22,345.92)" id="171" stroke-linejoin="round" stroke-width="2" ed:parentid="104"/><path fill="none" stroke-linecap="round" ed:tosuperid="172" stroke="#424f58" d="M-42.3,0L42.3,0" transform="matrix(1,0,0,1,474.02,295.85)" id="173" stroke-linejoin="round" stroke-width="2" ed:parentid="104"/><path fill="none" stroke-linecap="round" ed:tosuperid="161" stroke="#424f58" d="M-32,87.9L32,-87.9" transform="matrix(1,0,0,1,595.67,133.9)" id="162" stroke-linejoin="round" stroke-width="3" ed:parentid="101"/><path fill="none" stroke-linecap="round" ed:tosuperid="163" stroke="#424f58" d="M-18.5,-50.9L18.5,50.9" transform="matrix(1,0,0,1,626.21,271.95)" id="164" stroke-linejoin="round" stroke-width="3" ed:parentid="101"/><path fill="none" stroke-linecap="round" ed:tosuperid="165" stroke="#424f58" d="M-18.4,50.7L18.4,-50.7" transform="matrix(1,0,0,1,784.22,171.11)" id="166" stroke-linejoin="round" stroke-width="3" ed:parentid="101"/><path fill="none" stroke-linecap="round" ed:tosuperid="169" stroke="#424f58" d="M-40.8,0L40.8,0" transform="matrix(1,0,0,1,826.21,164.85)" id="174" stroke-linejoin="round" stroke-width="2" ed:parentid="165"/><path fill="none" stroke-linecap="round" ed:tosuperid="175" stroke="#424f58" d="M-41.5,0L41.5,0" transform="matrix(1,0,0,1,675.35,295.85)" id="176" stroke-linejoin="round" stroke-width="2" ed:parentid="163"/><path fill="none" stroke-linecap="round" ed:tosuperid="177" stroke="#424f58" d="M-59.8,0L59.8,0" transform="matrix(1,0,0,1,679.59,64.7)" id="178" stroke-linejoin="round" stroke-width="2" ed:parentid="161"/><path fill="none" stroke-linecap="round" ed:tosuperid="180" stroke="#424f58" d="M-59.7,0L59.7,0" transform="matrix(1,0,0,1,670.38,89.74)" id="181" stroke-linejoin="round" stroke-width="2" ed:parentid="161"/><path fill="none" stroke-linecap="round" ed:tosuperid="182" stroke="#424f58" d="M-37.2,0L37.2,0" transform="matrix(1,0,0,1,638.73,114.77)" id="183" stroke-linejoin="round" stroke-width="2" ed:parentid="161"/><path fill="none" stroke-linecap="round" ed:tosuperid="184" stroke="#424f58" d="M-49.1,0L49.1,0" transform="matrix(1,0,0,1,632.43,164.85)" id="185" stroke-linejoin="round" stroke-width="2" ed:parentid="161"/><path fill="none" stroke-linecap="round" ed:tosuperid="160" stroke="#424f58" d="M-38.8,0L38.8,0" transform="matrix(1,0,0,1,456.46,64.7)" id="167" stroke-linejoin="round" stroke-width="2" ed:parentid="106"/><path fill="none" stroke-linecap="round" ed:tosuperid="179" stroke="#424f58" d="M-38,0L38,0" transform="matrix(1,0,0,1,630.42,139.81)" id="186" stroke-linejoin="round" stroke-width="2" ed:parentid="161"/><path fill="none" stroke-linecap="round" ed:tosuperid="190" stroke="#424f58" d="M-40.6,0L40.6,0" transform="matrix(1,0,0,1,440.06,114.77)" id="191" stroke-linejoin="round" stroke-width="2" ed:parentid="106"/><g ed:topictype="mainidea" transform="matrix(1,0,0,1,23,166.42)" ed:layout="map" ed:height="110" id="101" ed:width="110"><path fill="#424f58" stroke="#424f58" d="M110,99.5L110,12.5C110,12.5,111.4,0,96.6,0C81.7,0,49.3,8.8,30.4,20.2C11.5,31.6,0,43.9,0,54.4C0,64.9,12,77.4,30.4,87.7C48.8,98.1,84.2,109.9,96.6,110C108.9,110,109.5,102.6,110,99.5zM856.9,54.5L110,54.5L110,55.5L856.9,55.5L856.9,54.5zM895.1,0C895.1,0,878.1,3.6,867.9,18.1C862.6,27.3,865,36.1,862.4,42.6C859.8,49.1,856.9,52.8,856.9,52.8C856.9,52.8,856.9,57.2,856.9,57.2C856.9,57.2,860.7,60.9,862.4,67.4C864.1,73.9,863.9,84.2,867.9,91.9C871.8,99.5,886.4,108.4,895.1,110C895.1,110,900.9,99.5,900.9,84.2C900.2,69,886.9,54.9,886.9,54.9C886.9,54.9,900.6,41.2,900.9,26.1C901,15.3,898,5.6,895.1,0z" stroke-linejoin="round" stroke-width="3"/><text class="st1"><tspan style="white-space:pre" y="62.1" x="41">ZCls</tspan></text></g><g transform="matrix(0.34,-0.94,0.94,0.34,161.24,195.36)" ed:layout="map" ed:height="35" id="102" ed:width="85.8125" ed:parentid="101"><text class="st2"><tspan style="white-space:pre" y="24.6" x="19">2021</tspan></text></g><g transform="matrix(-0.34,-0.94,0.94,-0.34,406.26,328.13)" ed:layout="map" ed:height="35" id="104" ed:width="85.8125" ed:parentid="101"><path fill="#ffffff" d="M0,0L85.8,0L85.8,35L0,35L0,0z"/><text class="st2"><tspan style="white-space:pre" y="24.6" x="19">2018</tspan></text></g><g transform="matrix(0.34,-0.94,0.94,0.34,332.91,195.36)" ed:layout="map" ed:height="35" id="106" ed:width="85.8125" ed:parentid="101"><text class="st2"><tspan style="white-space:pre" y="24.6" x="19">2019</tspan></text></g><g transform="matrix(-0.34,-0.94,0.94,-0.34,234.59,328.13)" ed:layout="map" ed:height="35" id="108" ed:width="85.8125" ed:parentid="101"><text class="st2"><tspan style="white-space:pre" y="24.6" x="19">2020</tspan></text></g><g transform="matrix(1,0,0,1,394.67,145.85)" ed:layout="map" ed:height="19" id="110" ed:width="58.5156" ed:parentid="106"><text class="st3"><tspan style="white-space:pre" y="13.1" x="9">SKNet</tspan></text></g><g transform="matrix(1,0,0,1,440.24,20.66)" ed:layout="map" ed:height="19" id="112" ed:width="79.51560000000001" ed:parentid="106"><text class="st3"><tspan style="white-space:pre" y="13.1" x="9">GhostNet</tspan></text></g><g transform="matrix(1,0,0,1,422.01,70.74)" ed:layout="map" ed:height="19" id="114" ed:width="102.672" ed:parentid="106"><text class="st3"><tspan style="white-space:pre" y="13.1" x="9">MobileNetV3</tspan></text></g><g transform="matrix(1,0,0,1,403.78,120.81)" ed:layout="map" ed:height="19" id="116" ed:width="61.1094" ed:parentid="106"><text class="st3"><tspan style="white-space:pre" y="13.1" x="9">GCNet</tspan></text></g><g transform="matrix(1,0,0,1,266.59,276.85)" ed:layout="map" ed:height="19" id="122" ed:width="72.14060000000001" ed:parentid="108"><text class="st3"><tspan style="white-space:pre" y="13.1" x="9">ResNeSt</tspan></text></g><g transform="matrix(1,0,0,1,223.01,145.85)" ed:layout="map" ed:height="19" id="134" ed:width="72.25" ed:parentid="102"><text class="st3"><tspan style="white-space:pre" y="13.1" x="9">RepVGG</tspan></text></g><g transform="matrix(1,0,0,1,447.37,301.88)" ed:layout="map" ed:height="19" id="144" ed:width="76.64060000000001" ed:parentid="104"><text class="st3"><tspan style="white-space:pre" y="13.1" x="9">MnasNet</tspan></text></g><g transform="matrix(1,0,0,1,465.59,351.96)" ed:layout="map" ed:height="19" id="146" ed:width="102.672" ed:parentid="104"><text class="st3"><tspan style="white-space:pre" y="13.1" x="9">MobileNetV2</tspan></text></g><g transform="matrix(1,0,0,1,456.48,326.92)" ed:layout="map" ed:height="19" id="170" ed:width="102.484" ed:parentid="104"><text class="st3"><tspan style="white-space:pre" y="13.1" x="9">ShuffleNetV2</tspan></text></g><g transform="matrix(1,0,0,1,438.25,276.85)" ed:layout="map" ed:height="19" id="172" ed:width="74.5313" ed:parentid="104"><text class="st3"><tspan style="white-space:pre" y="13.1" x="9">ResNetD</tspan></text></g><g transform="matrix(0.34,-0.94,0.94,0.34,534.99,195.36)" ed:layout="map" ed:height="35" id="161" ed:width="85.8125" ed:parentid="101"><path fill="#ffffff" d="M0,0L85.8,0L85.8,35L0,35L0,0z"/><text class="st2"><tspan style="white-space:pre" y="24.6" x="19">2017</tspan></text></g><g transform="matrix(-0.34,-0.94,0.94,-0.34,608.34,328.13)" ed:layout="map" ed:height="35" id="163" ed:width="85.8125" ed:parentid="101"><path fill="#ffffff" d="M0,0L85.8,0L85.8,35L0,35L0,0z"/><text class="st2"><tspan style="white-space:pre" y="24.6" x="19">2016</tspan></text></g><g transform="matrix(0.34,-0.94,0.94,0.34,737.08,195.36)" ed:layout="map" ed:height="35" id="165" ed:width="85.8125" ed:parentid="101"><path fill="#ffffff" d="M0,0L85.8,0L85.8,35L0,35L0,0z"/><text class="st2"><tspan style="white-space:pre" y="24.6" x="19">2015</tspan></text></g><g transform="matrix(1,0,0,1,798.85,145.85)" ed:layout="map" ed:height="19" id="169" ed:width="64.64060000000001" ed:parentid="165"><text class="st3"><tspan style="white-space:pre" y="13.1" x="9">ResNet</tspan></text></g><g transform="matrix(1,0,0,1,640.34,276.85)" ed:layout="map" ed:height="19" id="175" ed:width="73.01560000000001" ed:parentid="163"><text class="st3"><tspan style="white-space:pre" y="13.1" x="9">ResNeXt</tspan></text></g><g transform="matrix(1,0,0,1,633.21,45.7)" ed:layout="map" ed:height="19" id="177" ed:width="102.672" ed:parentid="161"><text class="st3"><tspan style="white-space:pre" y="13.1" x="9">MobileNetV1</tspan></text></g><g transform="matrix(1,0,0,1,624.1,70.74)" ed:layout="map" ed:height="19" id="180" ed:width="102.484" ed:parentid="161"><text class="st3"><tspan style="white-space:pre" y="13.1" x="9">ShuffleNetV1</tspan></text></g><g transform="matrix(1,0,0,1,614.98,95.77)" ed:layout="map" ed:height="19" id="182" ed:width="57.4063" ed:parentid="161"><text class="st3"><tspan style="white-space:pre" y="13.1" x="9">SENet</tspan></text></g><g transform="matrix(1,0,0,1,596.76,145.85)" ed:layout="map" ed:height="19" id="184" ed:width="81.26560000000001" ed:parentid="161"><text class="st3"><tspan style="white-space:pre" y="13.1" x="9">Non-local</tspan></text></g><g transform="matrix(1,0,0,1,431.12,45.7)" ed:layout="map" ed:height="19" id="160" ed:width="60.5938" ed:parentid="106"><text class="st3"><tspan style="white-space:pre" y="13.1" x="9">ACNet</tspan></text></g><g transform="matrix(1,0,0,1,605.87,120.81)" ed:layout="map" ed:height="19" id="179" ed:width="59.015625" ed:parentid="161"><text class="st3"><tspan style="white-space:pre" y="13.1" x="9">Mixup</tspan></text></g><g transform="matrix(1,0,0,1,412.9,95.77)" ed:layout="map" ed:height="19" id="190" ed:width="64.234375" ed:parentid="106"><text class="st3"><tspan style="white-space:pre" y="13.1" x="9">CutMix</tspan></text></g></svg>