<svg xmlns:ed="https://www.edrawsoft.cn/xml/2017/SVGExtensions/" xmlns:xlink="http://www.w3.org/1999/xlink" viewBox="0 0 977 403" xmlns="http://www.w3.org/2000/svg" xmlns:ev="http://www.w3.org/2001/xml-events" width="977" ed:hSpacing="30" id="page100" ed:name="页面-1" height="403" ed:vSpacing="30"><style type="text/css"><![CDATA[
g[ed\:togtopicid],g[ed\:hyperlink],g[ed\:comment],g[ed\:note] {cursor:pointer;}
g[id] {-moz-user-select: none;-ms-user-select: none;user-select: none;}
svg text::selection,svg tspan::selection{background-color: #4285f4;color: #ffffff;fill: #ffffff;}
.st3 {fill:#424f58;font-family:Microsoft YaHei;font-size:10pt}
.st2 {fill:#424f58;font-family:Microsoft YaHei;font-size:14pt;font-weight:bold}
.st1 {fill:#ffffff;font-family:Microsoft YaHei;font-size:18pt;font-weight:bold}
]]></style><defs/><rect y="0" width="977" x="0" height="403" fill="#ffffff"/><path transform="matrix(1,0,0,1,208.38,171.11)" stroke-linecap="round" d="M-18.4,50.7L18.4,-50.7" id="103" ed:tosuperid="102" stroke="#424f58" stroke-width="3" ed:parentid="101" fill="none" stroke-linejoin="round"/><path transform="matrix(1,0,0,1,434.23,299.73)" stroke-linecap="round" d="M-28.6,-78.7L28.6,78.7" id="105" ed:tosuperid="104" stroke="#424f58" stroke-width="3" ed:parentid="101" fill="none" stroke-linejoin="round"/><path transform="matrix(1,0,0,1,398.14,121.38)" stroke-linecap="round" d="M-36.5,100.4L36.5,-100.4" id="107" ed:tosuperid="106" stroke="#424f58" stroke-width="3" ed:parentid="101" fill="none" stroke-linejoin="round"/><path transform="matrix(1,0,0,1,252.45,271.95)" stroke-linecap="round" d="M-18.5,-50.9L18.5,50.9" id="109" ed:tosuperid="108" stroke="#424f58" stroke-width="3" ed:parentid="101" fill="none" stroke-linejoin="round"/><path transform="matrix(1,0,0,1,418.97,164.85)" stroke-linecap="round" d="M-37.7,0L37.7,0" id="111" ed:tosuperid="110" stroke="#424f58" stroke-width="2" ed:parentid="106" fill="none" stroke-linejoin="round"/><path transform="matrix(1,0,0,1,475.04,39.66)" stroke-linecap="round" d="M-48.2,0L48.2,0" id="113" ed:tosuperid="112" stroke="#424f58" stroke-width="2" ed:parentid="106" fill="none" stroke-linejoin="round"/><path transform="matrix(1,0,0,1,468.39,89.74)" stroke-linecap="round" d="M-59.8,0L59.8,0" id="115" ed:tosuperid="114" stroke="#424f58" stroke-width="2" ed:parentid="106" fill="none" stroke-linejoin="round"/><path transform="matrix(1,0,0,1,429.38,139.81)" stroke-linecap="round" d="M-39,0L39,0" id="117" ed:tosuperid="116" stroke="#424f58" stroke-width="2" ed:parentid="106" fill="none" stroke-linejoin="round"/><path transform="matrix(1,0,0,1,301.16,295.85)" stroke-linecap="round" d="M-41.1,0L41.1,0" id="123" ed:tosuperid="122" stroke="#424f58" stroke-width="2" ed:parentid="108" fill="none" stroke-linejoin="round"/><path transform="matrix(1,0,0,1,263.29,139.81)" stroke-linecap="round" d="M-44.6,0L44.6,0" id="135" ed:tosuperid="134" stroke="#424f58" stroke-width="2" ed:parentid="102" fill="none" stroke-linejoin="round"/><path transform="matrix(1,0,0,1,484.19,320.88)" stroke-linecap="round" d="M-43.3,0L43.3,0" id="145" ed:tosuperid="144" stroke="#424f58" stroke-width="2" ed:parentid="104" fill="none" stroke-linejoin="round"/><path transform="matrix(1,0,0,1,515.43,370.96)" stroke-linecap="round" d="M-56.3,0L56.3,0" id="147" ed:tosuperid="146" stroke="#424f58" stroke-width="2" ed:parentid="104" fill="none" stroke-linejoin="round"/><path transform="matrix(1,0,0,1,506.22,345.92)" stroke-linecap="round" d="M-56.2,0L56.2,0" id="171" ed:tosuperid="170" stroke="#424f58" stroke-width="2" ed:parentid="104" fill="none" stroke-linejoin="round"/><path transform="matrix(1,0,0,1,474.02,295.85)" stroke-linecap="round" d="M-42.3,0L42.3,0" id="173" ed:tosuperid="172" stroke="#424f58" stroke-width="2" ed:parentid="104" fill="none" stroke-linejoin="round"/><path transform="matrix(1,0,0,1,595.67,133.9)" stroke-linecap="round" d="M-32,87.9L32,-87.9" id="162" ed:tosuperid="161" stroke="#424f58" stroke-width="3" ed:parentid="101" fill="none" stroke-linejoin="round"/><path transform="matrix(1,0,0,1,626.21,271.95)" stroke-linecap="round" d="M-18.5,-50.9L18.5,50.9" id="164" ed:tosuperid="163" stroke="#424f58" stroke-width="3" ed:parentid="101" fill="none" stroke-linejoin="round"/><path transform="matrix(1,0,0,1,784.22,171.11)" stroke-linecap="round" d="M-18.4,50.7L18.4,-50.7" id="166" ed:tosuperid="165" stroke="#424f58" stroke-width="3" ed:parentid="101" fill="none" stroke-linejoin="round"/><path transform="matrix(1,0,0,1,826.21,164.85)" stroke-linecap="round" d="M-40.8,0L40.8,0" id="174" ed:tosuperid="169" stroke="#424f58" stroke-width="2" ed:parentid="165" fill="none" stroke-linejoin="round"/><path transform="matrix(1,0,0,1,675.35,295.85)" stroke-linecap="round" d="M-41.5,0L41.5,0" id="176" ed:tosuperid="175" stroke="#424f58" stroke-width="2" ed:parentid="163" fill="none" stroke-linejoin="round"/><path transform="matrix(1,0,0,1,679.59,64.7)" stroke-linecap="round" d="M-59.8,0L59.8,0" id="178" ed:tosuperid="177" stroke="#424f58" stroke-width="2" ed:parentid="161" fill="none" stroke-linejoin="round"/><path transform="matrix(1,0,0,1,670.38,89.74)" stroke-linecap="round" d="M-59.7,0L59.7,0" id="181" ed:tosuperid="180" stroke="#424f58" stroke-width="2" ed:parentid="161" fill="none" stroke-linejoin="round"/><path transform="matrix(1,0,0,1,638.73,114.77)" stroke-linecap="round" d="M-37.2,0L37.2,0" id="183" ed:tosuperid="182" stroke="#424f58" stroke-width="2" ed:parentid="161" fill="none" stroke-linejoin="round"/><path transform="matrix(1,0,0,1,632.43,164.85)" stroke-linecap="round" d="M-49.1,0L49.1,0" id="185" ed:tosuperid="184" stroke="#424f58" stroke-width="2" ed:parentid="161" fill="none" stroke-linejoin="round"/><path transform="matrix(1,0,0,1,456.46,64.7)" stroke-linecap="round" d="M-38.8,0L38.8,0" id="167" ed:tosuperid="160" stroke="#424f58" stroke-width="2" ed:parentid="106" fill="none" stroke-linejoin="round"/><path transform="matrix(1,0,0,1,630.42,139.81)" stroke-linecap="round" d="M-38,0L38,0" id="186" ed:tosuperid="179" stroke="#424f58" stroke-width="2" ed:parentid="161" fill="none" stroke-linejoin="round"/><path transform="matrix(1,0,0,1,440.06,114.77)" stroke-linecap="round" d="M-40.6,0L40.6,0" id="191" ed:tosuperid="190" stroke="#424f58" stroke-width="2" ed:parentid="106" fill="none" stroke-linejoin="round"/><path transform="matrix(1,0,0,1,241.15,164.85)" stroke-linecap="round" d="M-31.6,0L31.6,0" id="193" ed:tosuperid="192" stroke="#424f58" stroke-width="2" ed:parentid="102" fill="none" stroke-linejoin="round"/><g transform="matrix(1,0,0,1,23,166.42)" ed:topictype="mainidea" ed:width="110" ed:height="110" ed:layout="map" id="101"><path d="M110,99.5L110,12.5C110,12.5,111.4,0,96.6,0C81.7,0,49.3,8.8,30.4,20.2C11.5,31.6,0,43.9,0,54.4C0,64.9,12,77.4,30.4,87.7C48.8,98.1,84.2,109.9,96.6,110C108.9,110,109.5,102.6,110,99.5zM856.9,54.5L110,54.5L110,55.5L856.9,55.5L856.9,54.5zM895.1,0C895.1,0,878.1,3.6,867.9,18.1C862.6,27.3,865,36.1,862.4,42.6C859.8,49.1,856.9,52.8,856.9,52.8C856.9,52.8,856.9,57.2,856.9,57.2C856.9,57.2,860.7,60.9,862.4,67.4C864.1,73.9,863.9,84.2,867.9,91.9C871.8,99.5,886.4,108.4,895.1,110C895.1,110,900.9,99.5,900.9,84.2C900.2,69,886.9,54.9,886.9,54.9C886.9,54.9,900.6,41.2,900.9,26.1C901,15.3,898,5.6,895.1,0z" stroke="#424f58" stroke-width="3" fill="#424f58" stroke-linejoin="round"/><text class="st1"><tspan y="62.1" x="41" style="white-space:pre">ZCls</tspan></text></g><g transform="matrix(0.34,-0.94,0.94,0.34,161.24,195.36)" ed:width="85.8125" ed:height="35" ed:layout="map" id="102" ed:parentid="101"><text class="st2"><tspan y="24.6" x="19" style="white-space:pre">2021</tspan></text></g><g transform="matrix(-0.34,-0.94,0.94,-0.34,406.26,328.13)" ed:width="85.8125" ed:height="35" ed:layout="map" id="104" ed:parentid="101"><path d="M0,0L85.8,0L85.8,35L0,35L0,0z" fill="#ffffff"/><text class="st2"><tspan y="24.6" x="19" style="white-space:pre">2018</tspan></text></g><g transform="matrix(0.34,-0.94,0.94,0.34,332.91,195.36)" ed:width="85.8125" ed:height="35" ed:layout="map" id="106" ed:parentid="101"><text class="st2"><tspan y="24.6" x="19" style="white-space:pre">2019</tspan></text></g><g transform="matrix(-0.34,-0.94,0.94,-0.34,234.59,328.13)" ed:width="85.8125" ed:height="35" ed:layout="map" id="108" ed:parentid="101"><text class="st2"><tspan y="24.6" x="19" style="white-space:pre">2020</tspan></text></g><g transform="matrix(1,0,0,1,394.67,145.85)" ed:width="58.5156" ed:height="19" ed:layout="map" id="110" ed:parentid="106"><text class="st3"><tspan y="13.1" x="9" style="white-space:pre">SKNet</tspan></text></g><g transform="matrix(1,0,0,1,440.24,20.66)" ed:width="79.51560000000001" ed:height="19" ed:layout="map" id="112" ed:parentid="106"><text class="st3"><tspan y="13.1" x="9" style="white-space:pre">GhostNet</tspan></text></g><g transform="matrix(1,0,0,1,422.01,70.74)" ed:width="102.672" ed:height="19" ed:layout="map" id="114" ed:parentid="106"><text class="st3"><tspan y="13.1" x="9" style="white-space:pre">MobileNetV3</tspan></text></g><g transform="matrix(1,0,0,1,403.78,120.81)" ed:width="61.1094" ed:height="19" ed:layout="map" id="116" ed:parentid="106"><text class="st3"><tspan y="13.1" x="9" style="white-space:pre">GCNet</tspan></text></g><g transform="matrix(1,0,0,1,266.59,276.85)" ed:width="72.14060000000001" ed:height="19" ed:layout="map" id="122" ed:parentid="108"><text class="st3"><tspan y="13.1" x="9" style="white-space:pre">ResNeSt</tspan></text></g><g transform="matrix(1,0,0,1,232.12,120.81)" ed:width="72.25" ed:height="19" ed:layout="map" id="134" ed:parentid="102"><text class="st3"><tspan y="13.1" x="9" style="white-space:pre">RepVGG</tspan></text></g><g transform="matrix(1,0,0,1,447.37,301.88)" ed:width="76.64060000000001" ed:height="19" ed:layout="map" id="144" ed:parentid="104"><text class="st3"><tspan y="13.1" x="9" style="white-space:pre">MnasNet</tspan></text></g><g transform="matrix(1,0,0,1,465.59,351.96)" ed:width="102.672" ed:height="19" ed:layout="map" id="146" ed:parentid="104"><text class="st3"><tspan y="13.1" x="9" style="white-space:pre">MobileNetV2</tspan></text></g><g transform="matrix(1,0,0,1,456.48,326.92)" ed:width="102.484" ed:height="19" ed:layout="map" id="170" ed:parentid="104"><text class="st3"><tspan y="13.1" x="9" style="white-space:pre">ShuffleNetV2</tspan></text></g><g transform="matrix(1,0,0,1,438.25,276.85)" ed:width="74.5313" ed:height="19" ed:layout="map" id="172" ed:parentid="104"><text class="st3"><tspan y="13.1" x="9" style="white-space:pre">ResNetD</tspan></text></g><g transform="matrix(0.34,-0.94,0.94,0.34,534.99,195.36)" ed:width="85.8125" ed:height="35" ed:layout="map" id="161" ed:parentid="101"><path d="M0,0L85.8,0L85.8,35L0,35L0,0z" fill="#ffffff"/><text class="st2"><tspan y="24.6" x="19" style="white-space:pre">2017</tspan></text></g><g transform="matrix(-0.34,-0.94,0.94,-0.34,608.34,328.13)" ed:width="85.8125" ed:height="35" ed:layout="map" id="163" ed:parentid="101"><path d="M0,0L85.8,0L85.8,35L0,35L0,0z" fill="#ffffff"/><text class="st2"><tspan y="24.6" x="19" style="white-space:pre">2016</tspan></text></g><g transform="matrix(0.34,-0.94,0.94,0.34,737.08,195.36)" ed:width="85.8125" ed:height="35" ed:layout="map" id="165" ed:parentid="101"><path d="M0,0L85.8,0L85.8,35L0,35L0,0z" fill="#ffffff"/><text class="st2"><tspan y="24.6" x="19" style="white-space:pre">2015</tspan></text></g><g transform="matrix(1,0,0,1,798.85,145.85)" ed:width="64.64060000000001" ed:height="19" ed:layout="map" id="169" ed:parentid="165"><text class="st3"><tspan y="13.1" x="9" style="white-space:pre">ResNet</tspan></text></g><g transform="matrix(1,0,0,1,640.34,276.85)" ed:width="73.01560000000001" ed:height="19" ed:layout="map" id="175" ed:parentid="163"><text class="st3"><tspan y="13.1" x="9" style="white-space:pre">ResNeXt</tspan></text></g><g transform="matrix(1,0,0,1,633.21,45.7)" ed:width="102.672" ed:height="19" ed:layout="map" id="177" ed:parentid="161"><text class="st3"><tspan y="13.1" x="9" style="white-space:pre">MobileNetV1</tspan></text></g><g transform="matrix(1,0,0,1,624.1,70.74)" ed:width="102.484" ed:height="19" ed:layout="map" id="180" ed:parentid="161"><text class="st3"><tspan y="13.1" x="9" style="white-space:pre">ShuffleNetV1</tspan></text></g><g transform="matrix(1,0,0,1,614.98,95.77)" ed:width="57.4063" ed:height="19" ed:layout="map" id="182" ed:parentid="161"><text class="st3"><tspan y="13.1" x="9" style="white-space:pre">SENet</tspan></text></g><g transform="matrix(1,0,0,1,596.76,145.85)" ed:width="81.26560000000001" ed:height="19" ed:layout="map" id="184" ed:parentid="161"><text class="st3"><tspan y="13.1" x="9" style="white-space:pre">Non-local</tspan></text></g><g transform="matrix(1,0,0,1,431.12,45.7)" ed:width="60.5938" ed:height="19" ed:layout="map" id="160" ed:parentid="106"><text class="st3"><tspan y="13.1" x="9" style="white-space:pre">ACNet</tspan></text></g><g transform="matrix(1,0,0,1,605.87,120.81)" ed:width="59.0156" ed:height="19" ed:layout="map" id="179" ed:parentid="161"><text class="st3"><tspan y="13.1" x="9" style="white-space:pre">Mixup</tspan></text></g><g transform="matrix(1,0,0,1,412.9,95.77)" ed:width="64.23439999999999" ed:height="19" ed:layout="map" id="190" ed:parentid="106"><text class="st3"><tspan y="13.1" x="9" style="white-space:pre">CutMix</tspan></text></g><g transform="matrix(1,0,0,1,223.01,145.85)" ed:width="46.203125" ed:height="19" ed:layout="map" id="192" ed:parentid="102"><text class="st3"><tspan y="13.1" x="9" style="white-space:pre">DBB</tspan></text></g></svg>