<svg xmlns="http://www.w3.org/2000/svg" ed:name="页面-1" height="378" xmlns:ed="https://www.edrawsoft.cn/xml/2017/SVGExtensions/" xmlns:xlink="http://www.w3.org/1999/xlink" width="977" xmlns:ev="http://www.w3.org/2001/xml-events" ed:vSpacing="30" viewBox="0 0 977 378" id="page100" ed:hSpacing="30"><style type="text/css"><![CDATA[
g[ed\:togtopicid],g[ed\:hyperlink],g[ed\:comment],g[ed\:note] {cursor:pointer;}
g[id] {-moz-user-select: none;-ms-user-select: none;user-select: none;}
svg text::selection,svg tspan::selection{background-color: #4285f4;color: #ffffff;fill: #ffffff;}
.st3 {fill:#424f58;font-family:Microsoft YaHei;font-size:10pt}
.st2 {fill:#424f58;font-family:Microsoft YaHei;font-size:14pt;font-weight:bold}
.st1 {fill:#ffffff;font-family:Microsoft YaHei;font-size:18pt;font-weight:bold}
]]></style><defs/><rect height="378" x="0" y="0" width="977" fill="#ffffff"/><path ed:parentid="101" stroke="#424f58" ed:tosuperid="102" stroke-width="3" fill="none" stroke-linecap="round" d="M-18.4,50.7L18.4,-50.7" stroke-linejoin="round" id="103" transform="matrix(1,0,0,1,208.38,146.07)"/><path ed:parentid="101" stroke="#424f58" ed:tosuperid="104" stroke-width="3" fill="none" stroke-linecap="round" d="M-28.6,-78.7L28.6,78.7" stroke-linejoin="round" id="105" transform="matrix(1,0,0,1,434.23,274.7)"/><path ed:parentid="101" stroke="#424f58" ed:tosuperid="106" stroke-width="3" fill="none" stroke-linecap="round" d="M-32,87.9L32,-87.9" stroke-linejoin="round" id="107" transform="matrix(1,0,0,1,393.58,108.86)"/><path ed:parentid="101" stroke="#424f58" ed:tosuperid="108" stroke-width="3" fill="none" stroke-linecap="round" d="M-18.5,-50.9L18.5,50.9" stroke-linejoin="round" id="109" transform="matrix(1,0,0,1,252.45,246.91)"/><path ed:parentid="106" stroke="#424f58" ed:tosuperid="110" stroke-width="2" fill="none" stroke-linecap="round" d="M-37.7,0L37.7,0" stroke-linejoin="round" id="111" transform="matrix(1,0,0,1,418.97,139.81)"/><path ed:parentid="106" stroke="#424f58" ed:tosuperid="112" stroke-width="2" fill="none" stroke-linecap="round" d="M-48.2,0L48.2,0" stroke-linejoin="round" id="113" transform="matrix(1,0,0,1,465.92,39.66)"/><path ed:parentid="106" stroke="#424f58" ed:tosuperid="114" stroke-width="2" fill="none" stroke-linecap="round" d="M-59.8,0L59.8,0" stroke-linejoin="round" id="115" transform="matrix(1,0,0,1,459.28,89.74)"/><path ed:parentid="106" stroke="#424f58" ed:tosuperid="116" stroke-width="2" fill="none" stroke-linecap="round" d="M-39,0L39,0" stroke-linejoin="round" id="117" transform="matrix(1,0,0,1,429.38,114.77)"/><path ed:parentid="108" stroke="#424f58" ed:tosuperid="122" stroke-width="2" fill="none" stroke-linecap="round" d="M-41.1,0L41.1,0" stroke-linejoin="round" id="123" transform="matrix(1,0,0,1,301.16,270.81)"/><path ed:parentid="102" stroke="#424f58" ed:tosuperid="134" stroke-width="2" fill="none" stroke-linecap="round" d="M-44.6,0L44.6,0" stroke-linejoin="round" id="135" transform="matrix(1,0,0,1,254.17,139.81)"/><path ed:parentid="104" stroke="#424f58" ed:tosuperid="144" stroke-width="2" fill="none" stroke-linecap="round" d="M-43.3,0L43.3,0" stroke-linejoin="round" id="145" transform="matrix(1,0,0,1,484.19,295.85)"/><path ed:parentid="104" stroke="#424f58" ed:tosuperid="146" stroke-width="2" fill="none" stroke-linecap="round" d="M-56.3,0L56.3,0" stroke-linejoin="round" id="147" transform="matrix(1,0,0,1,515.43,345.92)"/><path ed:parentid="104" stroke="#424f58" ed:tosuperid="170" stroke-width="2" fill="none" stroke-linecap="round" d="M-56.2,0L56.2,0" stroke-linejoin="round" id="171" transform="matrix(1,0,0,1,506.22,320.88)"/><path ed:parentid="104" stroke="#424f58" ed:tosuperid="172" stroke-width="2" fill="none" stroke-linecap="round" d="M-42.3,0L42.3,0" stroke-linejoin="round" id="173" transform="matrix(1,0,0,1,474.02,270.81)"/><path ed:parentid="101" stroke="#424f58" ed:tosuperid="161" stroke-width="3" fill="none" stroke-linecap="round" d="M-32,87.9L32,-87.9" stroke-linejoin="round" id="162" transform="matrix(1,0,0,1,595.67,108.86)"/><path ed:parentid="101" stroke="#424f58" ed:tosuperid="163" stroke-width="3" fill="none" stroke-linecap="round" d="M-18.5,-50.9L18.5,50.9" stroke-linejoin="round" id="164" transform="matrix(1,0,0,1,626.21,246.91)"/><path ed:parentid="101" stroke="#424f58" ed:tosuperid="165" stroke-width="3" fill="none" stroke-linecap="round" d="M-18.4,50.7L18.4,-50.7" stroke-linejoin="round" id="166" transform="matrix(1,0,0,1,784.22,146.07)"/><path ed:parentid="165" stroke="#424f58" ed:tosuperid="169" stroke-width="2" fill="none" stroke-linecap="round" d="M-40.8,0L40.8,0" stroke-linejoin="round" id="174" transform="matrix(1,0,0,1,826.21,139.81)"/><path ed:parentid="163" stroke="#424f58" ed:tosuperid="175" stroke-width="2" fill="none" stroke-linecap="round" d="M-41.5,0L41.5,0" stroke-linejoin="round" id="176" transform="matrix(1,0,0,1,675.35,270.81)"/><path ed:parentid="161" stroke="#424f58" ed:tosuperid="177" stroke-width="2" fill="none" stroke-linecap="round" d="M-59.8,0L59.8,0" stroke-linejoin="round" id="178" transform="matrix(1,0,0,1,679.59,39.66)"/><path ed:parentid="161" stroke="#424f58" ed:tosuperid="180" stroke-width="2" fill="none" stroke-linecap="round" d="M-59.7,0L59.7,0" stroke-linejoin="round" id="181" transform="matrix(1,0,0,1,670.38,64.7)"/><path ed:parentid="161" stroke="#424f58" ed:tosuperid="182" stroke-width="2" fill="none" stroke-linecap="round" d="M-37.2,0L37.2,0" stroke-linejoin="round" id="183" transform="matrix(1,0,0,1,638.73,89.74)"/><path ed:parentid="161" stroke="#424f58" ed:tosuperid="184" stroke-width="2" fill="none" stroke-linecap="round" d="M-49.1,0L49.1,0" stroke-linejoin="round" id="185" transform="matrix(1,0,0,1,632.43,139.81)"/><path ed:parentid="106" stroke="#424f58" ed:tosuperid="160" stroke-width="2" fill="none" stroke-linecap="round" d="M-38.8,0L38.8,0" stroke-linejoin="round" id="167" transform="matrix(1,0,0,1,447.35,64.7)"/><path ed:parentid="161" stroke="#424f58" ed:tosuperid="179" stroke-width="2" fill="none" stroke-linecap="round" d="M-37.7,0L37.7,0" stroke-linejoin="round" id="186" transform="matrix(1,0,0,1,630.16,114.77)"/><g ed:topictype="mainidea" ed:height="110" ed:layout="map" ed:width="110" id="101" transform="matrix(1,0,0,1,23,141.38)"><path stroke="#424f58" stroke-width="3" fill="#424f58" d="M110,99.5L110,12.5C110,12.5,111.4,0,96.6,0C81.7,0,49.3,8.8,30.4,20.2C11.5,31.6,0,43.9,0,54.4C0,64.9,12,77.4,30.4,87.7C48.8,98.1,84.2,109.9,96.6,110C108.9,110,109.5,102.6,110,99.5zM856.9,54.5L110,54.5L110,55.5L856.9,55.5L856.9,54.5zM895.1,0C895.1,0,878.1,3.6,867.9,18.1C862.6,27.3,865,36.1,862.4,42.6C859.8,49.1,856.9,52.8,856.9,52.8C856.9,52.8,856.9,57.2,856.9,57.2C856.9,57.2,860.7,60.9,862.4,67.4C864.1,73.9,863.9,84.2,867.9,91.9C871.8,99.5,886.4,108.4,895.1,110C895.1,110,900.9,99.5,900.9,84.2C900.2,69,886.9,54.9,886.9,54.9C886.9,54.9,900.6,41.2,900.9,26.1C901,15.3,898,5.6,895.1,0z" stroke-linejoin="round"/><text class="st1"><tspan x="41" y="62.1" style="white-space:pre">ZCls</tspan></text></g><g ed:parentid="101" ed:height="35" ed:layout="map" ed:width="85.8125" id="102" transform="matrix(0.34,-0.94,0.94,0.34,161.24,170.32)"><text class="st2"><tspan x="19" y="24.6" style="white-space:pre">2021</tspan></text></g><g ed:parentid="101" ed:height="35" ed:layout="map" ed:width="85.8125" id="104" transform="matrix(-0.34,-0.94,0.94,-0.34,406.26,303.09)"><path fill="#ffffff" d="M0,0L85.8,0L85.8,35L0,35L0,0z"/><text class="st2"><tspan x="19" y="24.6" style="white-space:pre">2018</tspan></text></g><g ed:parentid="101" ed:height="35" ed:layout="map" ed:width="85.8125" id="106" transform="matrix(0.34,-0.94,0.94,0.34,332.91,170.32)"><text class="st2"><tspan x="19" y="24.6" style="white-space:pre">2019</tspan></text></g><g ed:parentid="101" ed:height="35" ed:layout="map" ed:width="85.8125" id="108" transform="matrix(-0.34,-0.94,0.94,-0.34,234.59,303.09)"><text class="st2"><tspan x="19" y="24.6" style="white-space:pre">2020</tspan></text></g><g ed:parentid="106" ed:height="19" ed:layout="map" ed:width="58.5156" id="110" transform="matrix(1,0,0,1,394.67,120.81)"><text class="st3"><tspan x="9" y="13.1" style="white-space:pre">SKNet</tspan></text></g><g ed:parentid="106" ed:height="19" ed:layout="map" ed:width="79.51560000000001" id="112" transform="matrix(1,0,0,1,431.12,20.66)"><text class="st3"><tspan x="9" y="13.1" style="white-space:pre">GhostNet</tspan></text></g><g ed:parentid="106" ed:height="19" ed:layout="map" ed:width="102.672" id="114" transform="matrix(1,0,0,1,412.9,70.74)"><text class="st3"><tspan x="9" y="13.1" style="white-space:pre">MobileNetV3</tspan></text></g><g ed:parentid="106" ed:height="19" ed:layout="map" ed:width="61.1094" id="116" transform="matrix(1,0,0,1,403.78,95.77)"><text class="st3"><tspan x="9" y="13.1" style="white-space:pre">GCNet</tspan></text></g><g ed:parentid="108" ed:height="19" ed:layout="map" ed:width="72.14060000000001" id="122" transform="matrix(1,0,0,1,266.59,251.81)"><text class="st3"><tspan x="9" y="13.1" style="white-space:pre">ResNeSt</tspan></text></g><g ed:parentid="102" ed:height="19" ed:layout="map" ed:width="72.25" id="134" transform="matrix(1,0,0,1,223.01,120.81)"><text class="st3"><tspan x="9" y="13.1" style="white-space:pre">RepVGG</tspan></text></g><g ed:parentid="104" ed:height="19" ed:layout="map" ed:width="76.64060000000001" id="144" transform="matrix(1,0,0,1,447.37,276.85)"><text class="st3"><tspan x="9" y="13.1" style="white-space:pre">MnasNet</tspan></text></g><g ed:parentid="104" ed:height="19" ed:layout="map" ed:width="102.672" id="146" transform="matrix(1,0,0,1,465.59,326.92)"><text class="st3"><tspan x="9" y="13.1" style="white-space:pre">MobileNetV2</tspan></text></g><g ed:parentid="104" ed:height="19" ed:layout="map" ed:width="102.484" id="170" transform="matrix(1,0,0,1,456.48,301.88)"><text class="st3"><tspan x="9" y="13.1" style="white-space:pre">ShuffleNetV2</tspan></text></g><g ed:parentid="104" ed:height="19" ed:layout="map" ed:width="74.5313" id="172" transform="matrix(1,0,0,1,438.25,251.81)"><text class="st3"><tspan x="9" y="13.1" style="white-space:pre">ResNetD</tspan></text></g><g ed:parentid="101" ed:height="35" ed:layout="map" ed:width="85.8125" id="161" transform="matrix(0.34,-0.94,0.94,0.34,534.99,170.32)"><path fill="#ffffff" d="M0,0L85.8,0L85.8,35L0,35L0,0z"/><text class="st2"><tspan x="19" y="24.6" style="white-space:pre">2017</tspan></text></g><g ed:parentid="101" ed:height="35" ed:layout="map" ed:width="85.8125" id="163" transform="matrix(-0.34,-0.94,0.94,-0.34,608.34,303.09)"><path fill="#ffffff" d="M0,0L85.8,0L85.8,35L0,35L0,0z"/><text class="st2"><tspan x="19" y="24.6" style="white-space:pre">2016</tspan></text></g><g ed:parentid="101" ed:height="35" ed:layout="map" ed:width="85.8125" id="165" transform="matrix(0.34,-0.94,0.94,0.34,737.08,170.32)"><path fill="#ffffff" d="M0,0L85.8,0L85.8,35L0,35L0,0z"/><text class="st2"><tspan x="19" y="24.6" style="white-space:pre">2015</tspan></text></g><g ed:parentid="165" ed:height="19" ed:layout="map" ed:width="64.64060000000001" id="169" transform="matrix(1,0,0,1,798.85,120.81)"><text class="st3"><tspan x="9" y="13.1" style="white-space:pre">ResNet</tspan></text></g><g ed:parentid="163" ed:height="19" ed:layout="map" ed:width="73.01560000000001" id="175" transform="matrix(1,0,0,1,640.34,251.81)"><text class="st3"><tspan x="9" y="13.1" style="white-space:pre">ResNeXt</tspan></text></g><g ed:parentid="161" ed:height="19" ed:layout="map" ed:width="102.672" id="177" transform="matrix(1,0,0,1,633.21,20.66)"><text class="st3"><tspan x="9" y="13.1" style="white-space:pre">MobileNetV1</tspan></text></g><g ed:parentid="161" ed:height="19" ed:layout="map" ed:width="102.484" id="180" transform="matrix(1,0,0,1,624.1,45.7)"><text class="st3"><tspan x="9" y="13.1" style="white-space:pre">ShuffleNetV1</tspan></text></g><g ed:parentid="161" ed:height="19" ed:layout="map" ed:width="57.4063" id="182" transform="matrix(1,0,0,1,614.98,70.74)"><text class="st3"><tspan x="9" y="13.1" style="white-space:pre">SENet</tspan></text></g><g ed:parentid="161" ed:height="19" ed:layout="map" ed:width="81.26560000000001" id="184" transform="matrix(1,0,0,1,596.76,120.81)"><text class="st3"><tspan x="9" y="13.1" style="white-space:pre">Non-local</tspan></text></g><g ed:parentid="106" ed:height="19" ed:layout="map" ed:width="60.5938" id="160" transform="matrix(1,0,0,1,422.01,45.7)"><text class="st3"><tspan x="9" y="13.1" style="white-space:pre">ACNet</tspan></text></g><g ed:parentid="161" ed:height="19" ed:layout="map" ed:width="58.5" id="179" transform="matrix(1,0,0,1,605.87,95.77)"><text class="st3"><tspan x="9" y="13.1" style="white-space:pre">mixup</tspan></text></g></svg>