<svg xmlns:ev="http://www.w3.org/2001/xml-events" xmlns:xlink="http://www.w3.org/1999/xlink" height="353" xmlns:ed="https://www.edrawsoft.cn/xml/2017/SVGExtensions/" ed:vSpacing="30" xmlns="http://www.w3.org/2000/svg" id="page100" viewBox="0 0 977 353" ed:hSpacing="30" width="977" ed:name="页面-1"><style type="text/css"><![CDATA[
g[ed\:togtopicid],g[ed\:hyperlink],g[ed\:comment],g[ed\:note] {cursor:pointer;}
g[id] {-moz-user-select: none;-ms-user-select: none;user-select: none;}
svg text::selection,svg tspan::selection{background-color: #4285f4;color: #ffffff;fill: #ffffff;}
.st3 {fill:#424f58;font-family:Microsoft YaHei;font-size:10pt}
.st2 {fill:#424f58;font-family:Microsoft YaHei;font-size:14pt;font-weight:bold}
.st1 {fill:#ffffff;font-family:Microsoft YaHei;font-size:18pt;font-weight:bold}
]]></style><defs/><rect height="353" x="0" y="0" width="977" fill="#ffffff"/><path ed:tosuperid="102" d="M-18.4,50.7L18.4,-50.7" ed:parentid="101" stroke="#424f58" stroke-width="3" transform="matrix(1,0,0,1,208.38,121.03)" id="103" stroke-linejoin="round" stroke-linecap="round" fill="none"/><path ed:tosuperid="104" d="M-28.6,-78.7L28.6,78.7" ed:parentid="101" stroke="#424f58" stroke-width="3" transform="matrix(1,0,0,1,434.23,249.66)" id="105" stroke-linejoin="round" stroke-linecap="round" fill="none"/><path ed:tosuperid="106" d="M-27.4,75.3L27.4,-75.3" ed:parentid="101" stroke="#424f58" stroke-width="3" transform="matrix(1,0,0,1,389.03,96.34)" id="107" stroke-linejoin="round" stroke-linecap="round" fill="none"/><path ed:tosuperid="108" d="M-18.5,-50.9L18.5,50.9" ed:parentid="101" stroke="#424f58" stroke-width="3" transform="matrix(1,0,0,1,252.45,221.87)" id="109" stroke-linejoin="round" stroke-linecap="round" fill="none"/><path ed:tosuperid="110" d="M-37.7,0L37.7,0" ed:parentid="106" stroke="#424f58" stroke-width="2" transform="matrix(1,0,0,1,418.97,114.78)" id="111" stroke-linejoin="round" stroke-linecap="round" fill="none"/><path ed:tosuperid="112" d="M-38.8,0L38.8,0" ed:parentid="106" stroke="#424f58" stroke-width="2" transform="matrix(1,0,0,1,447.35,39.66)" id="113" stroke-linejoin="round" stroke-linecap="round" fill="none"/><path ed:tosuperid="114" d="M-59.8,0L59.8,0" ed:parentid="106" stroke="#424f58" stroke-width="2" transform="matrix(1,0,0,1,459.28,64.7)" id="115" stroke-linejoin="round" stroke-linecap="round" fill="none"/><path ed:tosuperid="116" d="M-39,0L39,0" ed:parentid="106" stroke="#424f58" stroke-width="2" transform="matrix(1,0,0,1,429.38,89.74)" id="117" stroke-linejoin="round" stroke-linecap="round" fill="none"/><path ed:tosuperid="122" d="M-41.1,0L41.1,0" ed:parentid="108" stroke="#424f58" stroke-width="2" transform="matrix(1,0,0,1,301.16,245.77)" id="123" stroke-linejoin="round" stroke-linecap="round" fill="none"/><path ed:tosuperid="134" d="M-44.6,0L44.6,0" ed:parentid="102" stroke="#424f58" stroke-width="2" transform="matrix(1,0,0,1,254.17,114.78)" id="135" stroke-linejoin="round" stroke-linecap="round" fill="none"/><path ed:tosuperid="144" d="M-43.3,0L43.3,0" ed:parentid="104" stroke="#424f58" stroke-width="2" transform="matrix(1,0,0,1,484.19,270.81)" id="145" stroke-linejoin="round" stroke-linecap="round" fill="none"/><path ed:tosuperid="146" d="M-56.3,0L56.3,0" ed:parentid="104" stroke="#424f58" stroke-width="2" transform="matrix(1,0,0,1,515.43,320.88)" id="147" stroke-linejoin="round" stroke-linecap="round" fill="none"/><path ed:tosuperid="170" d="M-56.2,0L56.2,0" ed:parentid="104" stroke="#424f58" stroke-width="2" transform="matrix(1,0,0,1,506.22,295.85)" id="171" stroke-linejoin="round" stroke-linecap="round" fill="none"/><path ed:tosuperid="172" d="M-42.3,0L42.3,0" ed:parentid="104" stroke="#424f58" stroke-width="2" transform="matrix(1,0,0,1,474.02,245.77)" id="173" stroke-linejoin="round" stroke-linecap="round" fill="none"/><path ed:tosuperid="161" d="M-27.4,75.3L27.4,-75.3" ed:parentid="101" stroke="#424f58" stroke-width="3" transform="matrix(1,0,0,1,591.12,96.34)" id="162" stroke-linejoin="round" stroke-linecap="round" fill="none"/><path ed:tosuperid="163" d="M-18.5,-50.9L18.5,50.9" ed:parentid="101" stroke="#424f58" stroke-width="3" transform="matrix(1,0,0,1,626.21,221.87)" id="164" stroke-linejoin="round" stroke-linecap="round" fill="none"/><path ed:tosuperid="165" d="M-18.4,50.7L18.4,-50.7" ed:parentid="101" stroke="#424f58" stroke-width="3" transform="matrix(1,0,0,1,784.22,121.03)" id="166" stroke-linejoin="round" stroke-linecap="round" fill="none"/><path ed:tosuperid="169" d="M-40.8,0L40.8,0" ed:parentid="165" stroke="#424f58" stroke-width="2" transform="matrix(1,0,0,1,826.21,114.78)" id="174" stroke-linejoin="round" stroke-linecap="round" fill="none"/><path ed:tosuperid="175" d="M-41.5,0L41.5,0" ed:parentid="163" stroke="#424f58" stroke-width="2" transform="matrix(1,0,0,1,675.35,245.77)" id="176" stroke-linejoin="round" stroke-linecap="round" fill="none"/><path ed:tosuperid="177" d="M-59.8,0L59.8,0" ed:parentid="161" stroke="#424f58" stroke-width="2" transform="matrix(1,0,0,1,670.48,39.66)" id="178" stroke-linejoin="round" stroke-linecap="round" fill="none"/><path ed:tosuperid="180" d="M-59.7,0L59.7,0" ed:parentid="161" stroke="#424f58" stroke-width="2" transform="matrix(1,0,0,1,661.27,64.7)" id="181" stroke-linejoin="round" stroke-linecap="round" fill="none"/><path ed:tosuperid="182" d="M-37.2,0L37.2,0" ed:parentid="161" stroke="#424f58" stroke-width="2" transform="matrix(1,0,0,1,629.62,89.74)" id="183" stroke-linejoin="round" stroke-linecap="round" fill="none"/><path ed:tosuperid="184" d="M-49.1,0L49.1,0" ed:parentid="161" stroke="#424f58" stroke-width="2" transform="matrix(1,0,0,1,632.43,114.78)" id="185" stroke-linejoin="round" stroke-linecap="round" fill="none"/><g ed:topictype="mainidea" transform="matrix(1,0,0,1,23,116.34)" ed:height="110" ed:layout="map" id="101" ed:width="110"><path d="M110,99.5L110,12.5C110,12.5,111.4,0,96.6,0C81.7,0,49.3,8.8,30.4,20.2C11.5,31.6,0,43.9,0,54.4C0,64.9,12,77.4,30.4,87.7C48.8,98.1,84.2,109.9,96.6,110C108.9,110,109.5,102.6,110,99.5zM856.9,54.5L110,54.5L110,55.5L856.9,55.5L856.9,54.5zM895.1,0C895.1,0,878.1,3.6,867.9,18.1C862.6,27.3,865,36.1,862.4,42.6C859.8,49.1,856.9,52.8,856.9,52.8C856.9,52.8,856.9,57.2,856.9,57.2C856.9,57.2,860.7,60.9,862.4,67.4C864.1,73.9,863.9,84.2,867.9,91.9C871.8,99.5,886.4,108.4,895.1,110C895.1,110,900.9,99.5,900.9,84.2C900.2,69,886.9,54.9,886.9,54.9C886.9,54.9,900.6,41.2,900.9,26.1C901,15.3,898,5.6,895.1,0z" stroke="#424f58" stroke-width="3" stroke-linejoin="round" fill="#424f58"/><text class="st1"><tspan style="white-space:pre" x="41" y="62.1">ZCls</tspan></text></g><g ed:parentid="101" transform="matrix(0.34,-0.94,0.94,0.34,161.24,145.28)" ed:height="35" ed:layout="map" id="102" ed:width="85.8125"><text class="st2"><tspan style="white-space:pre" x="19" y="24.6">2021</tspan></text></g><g ed:parentid="101" transform="matrix(-0.34,-0.94,0.94,-0.34,406.26,278.05)" ed:height="35" ed:layout="map" id="104" ed:width="85.8125"><path d="M0,0L85.8,0L85.8,35L0,35L0,0z" fill="#ffffff"/><text class="st2"><tspan style="white-space:pre" x="19" y="24.6">2018</tspan></text></g><g ed:parentid="101" transform="matrix(0.34,-0.94,0.94,0.34,332.91,145.28)" ed:height="35" ed:layout="map" id="106" ed:width="85.8125"><text class="st2"><tspan style="white-space:pre" x="19" y="24.6">2019</tspan></text></g><g ed:parentid="101" transform="matrix(-0.34,-0.94,0.94,-0.34,234.59,278.05)" ed:height="35" ed:layout="map" id="108" ed:width="85.8125"><text class="st2"><tspan style="white-space:pre" x="19" y="24.6">2020</tspan></text></g><g ed:parentid="106" transform="matrix(1,0,0,1,394.67,95.78)" ed:height="19" ed:layout="map" id="110" ed:width="58.5156"><text class="st3"><tspan style="white-space:pre" x="9" y="13.1">SKNet</tspan></text></g><g ed:parentid="106" transform="matrix(1,0,0,1,422.01,20.66)" ed:height="19" ed:layout="map" id="112" ed:width="60.5938"><text class="st3"><tspan style="white-space:pre" x="9" y="13.1">ACNet</tspan></text></g><g ed:parentid="106" transform="matrix(1,0,0,1,412.89,45.7)" ed:height="19" ed:layout="map" id="114" ed:width="102.672"><text class="st3"><tspan style="white-space:pre" x="9" y="13.1">MobileNetV3</tspan></text></g><g ed:parentid="106" transform="matrix(1,0,0,1,403.79,70.74)" ed:height="19" ed:layout="map" id="116" ed:width="61.1094"><text class="st3"><tspan style="white-space:pre" x="9" y="13.1">GCNet</tspan></text></g><g ed:parentid="108" transform="matrix(1,0,0,1,266.59,226.77)" ed:height="19" ed:layout="map" id="122" ed:width="72.14060000000001"><text class="st3"><tspan style="white-space:pre" x="9" y="13.1">ResNeSt</tspan></text></g><g ed:parentid="102" transform="matrix(1,0,0,1,223.01,95.78)" ed:height="19" ed:layout="map" id="134" ed:width="72.25"><text class="st3"><tspan style="white-space:pre" x="9" y="13.1">RepVGG</tspan></text></g><g ed:parentid="104" transform="matrix(1,0,0,1,447.37,251.81)" ed:height="19" ed:layout="map" id="144" ed:width="76.64060000000001"><text class="st3"><tspan style="white-space:pre" x="9" y="13.1">MnasNet</tspan></text></g><g ed:parentid="104" transform="matrix(1,0,0,1,465.59,301.88)" ed:height="19" ed:layout="map" id="146" ed:width="102.672"><text class="st3"><tspan style="white-space:pre" x="9" y="13.1">MobileNetV2</tspan></text></g><g ed:parentid="104" transform="matrix(1,0,0,1,456.48,276.85)" ed:height="19" ed:layout="map" id="170" ed:width="102.484"><text class="st3"><tspan style="white-space:pre" x="9" y="13.1">ShuffleNetV2</tspan></text></g><g ed:parentid="104" transform="matrix(1,0,0,1,438.25,226.77)" ed:height="19" ed:layout="map" id="172" ed:width="74.5313"><text class="st3"><tspan style="white-space:pre" x="9" y="13.1">ResNetD</tspan></text></g><g ed:parentid="101" transform="matrix(0.34,-0.94,0.94,0.34,534.99,145.28)" ed:height="35" ed:layout="map" id="161" ed:width="85.8125"><path d="M0,0L85.8,0L85.8,35L0,35L0,0z" fill="#ffffff"/><text class="st2"><tspan style="white-space:pre" x="19" y="24.6">2017</tspan></text></g><g ed:parentid="101" transform="matrix(-0.34,-0.94,0.94,-0.34,608.34,278.05)" ed:height="35" ed:layout="map" id="163" ed:width="85.8125"><path d="M0,0L85.8,0L85.8,35L0,35L0,0z" fill="#ffffff"/><text class="st2"><tspan style="white-space:pre" x="19" y="24.6">2016</tspan></text></g><g ed:parentid="101" transform="matrix(0.34,-0.94,0.94,0.34,737.08,145.28)" ed:height="35" ed:layout="map" id="165" ed:width="85.8125"><path d="M0,0L85.8,0L85.8,35L0,35L0,0z" fill="#ffffff"/><text class="st2"><tspan style="white-space:pre" x="19" y="24.6">2015</tspan></text></g><g ed:parentid="165" transform="matrix(1,0,0,1,798.85,95.78)" ed:height="19" ed:layout="map" id="169" ed:width="64.64060000000001"><text class="st3"><tspan style="white-space:pre" x="9" y="13.1">ResNet</tspan></text></g><g ed:parentid="163" transform="matrix(1,0,0,1,640.34,226.77)" ed:height="19" ed:layout="map" id="175" ed:width="73.01560000000001"><text class="st3"><tspan style="white-space:pre" x="9" y="13.1">ResNeXt</tspan></text></g><g ed:parentid="161" transform="matrix(1,0,0,1,624.09,20.66)" ed:height="19" ed:layout="map" id="177" ed:width="102.672"><text class="st3"><tspan style="white-space:pre" x="9" y="13.1">MobileNetV1</tspan></text></g><g ed:parentid="161" transform="matrix(1,0,0,1,614.99,45.7)" ed:height="19" ed:layout="map" id="180" ed:width="102.484"><text class="st3"><tspan style="white-space:pre" x="9" y="13.1">ShuffleNetV1</tspan></text></g><g ed:parentid="161" transform="matrix(1,0,0,1,605.87,70.74)" ed:height="19" ed:layout="map" id="182" ed:width="57.4063"><text class="st3"><tspan style="white-space:pre" x="9" y="13.1">SENet</tspan></text></g><g ed:parentid="161" transform="matrix(1,0,0,1,596.76,95.78)" ed:height="19" ed:layout="map" id="184" ed:width="81.26560000000001"><text class="st3"><tspan style="white-space:pre" x="9" y="13.1">Non-local</tspan></text></g></svg>